<mxfile host="app.diagrams.net" modified="2023-06-16T16:29:16.028Z" agent="5.0 (Windows)" etag="uxqKA6obxRwhjaNhLvqr" version="20.8.15" type="github">
  <diagram name="Page-1" id="SIYGchm3gwE7ts9h4JU_">
    <mxGraphModel dx="2963" dy="1066" grid="1" gridSize="10" guides="1" tooltips="1" connect="1" arrows="1" fold="1" page="1" pageScale="1" pageWidth="1700" pageHeight="1100" math="0" shadow="0">
      <root>
        <mxCell id="0" />
        <mxCell id="1" parent="0" />
      </root>
    </mxGraphModel>
  </diagram>
</mxfile>
